<svg width="30" height="31" viewBox="0 0 30 31" fill="none" xmlns="http://www.w3.org/2000/svg">
<path fill-rule="evenodd" clip-rule="evenodd" d="M7.2072 7.31062C7.59772 6.9201 8.23089 6.9201 8.62141 7.31062L23.2072 21.8964C23.5977 22.2869 23.5977 22.9201 23.2072 23.3106C22.8167 23.7011 22.1835 23.7011 21.793 23.3106L7.2072 8.72484C6.81668 8.33431 6.81668 7.70115 7.2072 7.31062Z" fill="#E9B308"/>
<path fill-rule="evenodd" clip-rule="evenodd" d="M22.7928 7.31062C22.4023 6.9201 21.7691 6.9201 21.3786 7.31062L6.7928 21.8964C6.40228 22.2869 6.40228 22.9201 6.7928 23.3106C7.18332 23.7011 7.81649 23.7011 8.20701 23.3106L22.7928 8.72484C23.1833 8.33431 23.1833 7.70115 22.7928 7.31062Z" fill="#E9B308"/>
<rect x="0.5" y="0.810547" width="29" height="29" stroke="#E9B308" stroke-opacity="0.15"/>
</svg>
