<svg width="25" height="24" viewBox="0 0 25 24" fill="none" xmlns="http://www.w3.org/2000/svg">
<path d="M4.62395 0C2.19638 0 0.241699 1.95468 0.241699 4.38225V19.6177C0.241699 22.0453 2.19638 24 4.62395 24H12.8814V14.6175H10.4004V11.2395H12.8814V8.3535C12.8814 6.0861 14.3473 4.00425 17.7242 4.00425C19.0914 4.00425 20.1024 4.1355 20.1024 4.1355L20.0229 7.29001C20.0229 7.29001 18.9918 7.28027 17.8667 7.28027C16.6489 7.28027 16.4537 7.84134 16.4537 8.77277V11.2395H20.1197L19.9599 14.6175H16.4537V24H19.8594C22.287 24 24.2417 22.0453 24.2417 19.6178V4.38227C24.2417 1.9547 22.287 2.4e-05 19.8594 2.4e-05L4.62395 0Z" fill="white" fill-opacity="0.7"/>
</svg>
