<svg width="14" height="14" viewBox="0 0 14 14" fill="none" xmlns="http://www.w3.org/2000/svg">
<path d="M13.5176 1.25977L10.877 0.650391C10.5977 0.574219 10.293 0.726562 10.166 1.00586L8.94727 3.84961C8.8457 4.10352 8.92188 4.38281 9.125 4.56055L10.6738 5.83008C9.75977 7.75977 8.16016 9.38477 6.17969 10.3242L4.91016 8.77539C4.73242 8.57227 4.45312 8.49609 4.19922 8.59766L1.35547 9.81641C1.07617 9.94336 0.949219 10.248 1 10.5273L1.60938 13.168C1.68555 13.4473 1.91406 13.625 2.21875 13.625C8.71875 13.625 14 8.36914 14 1.84375C14 1.56445 13.7969 1.33594 13.5176 1.25977Z" fill="#F49E0B"/>
</svg>
